# xmcd
#
# Track frame offsets: 
#        150
#        7940
#        19543
#        29373
#        40102
#        58576
#        67771
#        79313
#        91358
#        101773
#
# Disc length: 1515 seconds
#
# Revision: 0
# Processed by: cddbd v1.5.2PL0 Copyright (c) Steve Scherf et al.
# Submitted via: ExactAudioCopy v0.99pb5
#
DISCID=6d05e90a
DTITLE=Various Artist - The Best Darn Funny Country Songs
DYEAR=1900
DGENRE=Country
TTITLE0=Dang Me - Roger Miller
TTITLE1=Kaw-Liga - Hank Williams
TTITLE2=Mohair Sam - Charlie Rich
TTITLE3=Who Shot Sam - George Jones
TTITLE4=One Piece At A Time - Johnny Cash
TTITLE5=Honky Tonk Song - Webb Pierce
TTITLE6=Return Of Jerry Lee - Jerry Lee Lewis
TTITLE7=Ten With A Two - Willie Nelson
TTITLE8=Wild As A Wildcat - Charlie Walker
TTITLE9=Intoxicated Rat - The Dixon Brothers
EXTD=
EXTT0=
EXTT1=
EXTT2=
EXTT3=
EXTT4=
EXTT5=
EXTT6=
EXTT7=
EXTT8=
EXTT9=
PLAYORDER=
